<svg width="25" height="25" fill="none" xmlns="http://www.w3.org/2000/svg"><path d="M17.795 5.892a1.323 1.323 0 112.65.002 1.323 1.323 0 01-2.65-.002z" fill="#FDFF8E"/><path fill-rule="evenodd" clip-rule="evenodd" d="M12.5 6.222A6.283 6.283 0 006.212 12.5a6.283 6.283 0 006.288 6.278 6.283 6.283 0 006.288-6.278A6.283 6.283 0 0012.5 6.222zM8.197 12.5A4.3 4.3 0 0112.5 8.204a4.299 4.299 0 014.302 4.296 4.299 4.299 0 01-4.302 4.296A4.3 4.3 0 018.197 12.5z" fill="#FDFF8E"/><path fill-rule="evenodd" clip-rule="evenodd" d="M19.461.384a63.279 63.279 0 00-13.922 0C2.875.681.725 2.776.412 5.45a60.596 60.596 0 000 14.102c.313 2.673 2.463 4.768 5.127 5.065 4.59.512 9.333.512 13.922 0 2.664-.297 4.814-2.392 5.127-5.065a60.595 60.595 0 000-14.102C24.275 2.776 22.125.681 19.461.384zM5.76 2.354a61.29 61.29 0 0113.482 0c1.76.197 3.171 1.584 3.375 3.326.53 4.531.53 9.109 0 13.64-.204 1.742-1.614 3.13-3.375 3.326a61.292 61.292 0 01-13.482 0C4 22.449 2.588 21.062 2.384 19.32a58.705 58.705 0 010-13.64c.204-1.742 1.615-3.13 3.375-3.326z" fill="#FDFF8E"/></svg>