<svg width="27" height="25" fill="none" xmlns="http://www.w3.org/2000/svg"><path d="M26.313.487A1.966 1.966 0 0024.28.143L1.268 9.383a1.98 1.98 0 00-.973.821 2.05 2.05 0 00-.286 1.257c.038.44.214.855.501 1.183.288.329.672.553 1.095.64l5.847 1.185v7.47c0 .404.117.8.336 1.135.22.336.532.598.898.752.241.1.5.151.76.153a1.93 1.93 0 00.764-.155 1.97 1.97 0 00.645-.444l3.24-3.302 4.9 4.41a1.97 1.97 0 001.309.51c.212.005.423-.03.623-.101a1.997 1.997 0 001.334-1.479l4.687-20.931a2.084 2.084 0 00-.046-1.091 2.043 2.043 0 00-.59-.91zM8.212 12.546l-6.208-1.262 17.403-6.999-11.195 8.26zm1.234 9.394v-6.042l3.142 2.83-3.142 3.212zm10.87 1.02l-10.271-9.242L24.841 2.794 20.317 22.96z" fill="#FDFF8E"/></svg>