<svg width="40" height="40" fill="none" xmlns="http://www.w3.org/2000/svg"><path d="M20 1.25C9.645 1.25 1.25 9.645 1.25 20c0 10.354 8.395 18.75 18.75 18.75S38.75 30.354 38.75 20C38.75 9.645 30.355 1.25 20 1.25zm-2.5 8.125c0-.625.625-1.25 1.25-1.25h2.5c.625 0 1.25.625 1.25 1.25v2.5c0 .625-.625 1.25-1.25 1.249h-2.5c-.625.001-1.25-.624-1.25-1.249v-2.5zM23.75 22.5l-1.25-5.625v2.5L23.75 25H22.5v6.875h-1.875V25h-1.25v6.875H17.5V25h-1.25l1.25-5.625v-2.5L16.25 22.5h-1.875l1.875-6.875c0-.625.625-1.25 1.25-1.25h5c.625 0 1.25.625 1.25 1.25l1.875 6.875H23.75z" fill="#FDFF8E"/></svg>