<svg width="27" height="29" fill="none" xmlns="http://www.w3.org/2000/svg"><path d="M12.787.002C10.506.034 5.596.416 2.85 2.981.81 5.047.098 8.093.015 11.866c-.071 3.758-.154 10.814 6.52 12.737v2.924s-.045 1.172.713 1.414c.937.302 1.47-.603 2.36-1.57l1.659-1.909c4.563.387 8.06-.506 8.463-.64.925-.301 6.142-.98 6.995-8.037.877-7.288-.426-11.88-2.774-13.958l-.011-.002c-.712-.665-3.556-2.78-9.922-2.803 0 0-.47-.03-1.23-.02zm.08 2.05c.646-.003 1.043.025 1.043.025 5.382.012 7.955 1.668 8.56 2.223 1.98 1.727 2.997 5.868 2.252 11.953-.711 5.897-4.943 6.272-5.725 6.525-.332.11-3.414.882-7.293.629 0 0-2.891 3.553-3.792 4.472-.142.157-.308.205-.415.181-.154-.036-.201-.23-.19-.495l.024-4.857c-5.655-1.595-5.323-7.615-5.264-10.756.071-3.142.652-5.718 2.37-7.458 2.32-2.139 6.49-2.429 8.429-2.441h.001zm.427 3.143a.349.349 0 00-.252.105.363.363 0 00-.104.256c0 .096.037.188.104.256a.352.352 0 00.252.106 6.563 6.563 0 012.577.474 6.67 6.67 0 012.2 1.448c1.292 1.28 1.921 2.996 1.945 5.244a.368.368 0 00.22.335.35.35 0 00.136.027v-.01a.352.352 0 00.251-.107.366.366 0 00.104-.256 7.932 7.932 0 00-.492-3.1 7.815 7.815 0 00-1.653-2.652c-1.41-1.401-3.191-2.126-5.29-2.126h.002zm-4.687.833a1.114 1.114 0 00-.73.145h-.014c-.486.29-.934.653-1.36 1.136-.32.387-.5.772-.547 1.147a1.51 1.51 0 00.06.654l.023.012a16.734 16.734 0 001.423 3.141 18.576 18.576 0 002.75 3.832l.035.048.048.037.035.036.036.036a18.52 18.52 0 003.77 2.816c1.564.87 2.515 1.28 3.084 1.45v.012c.166.048.317.072.472.072a2.16 2.16 0 001.306-.57 5.44 5.44 0 001.102-1.387v-.012c.273-.52.178-1.017-.213-1.355a16.16 16.16 0 00-2.549-1.86c-.604-.34-1.22-.134-1.47.205l-.533.687c-.273.338-.77.29-.77.29l-.015.012c-3.698-.966-4.682-4.784-4.682-4.784s-.048-.52.296-.785l.664-.544c.32-.266.545-.894.202-1.51A16.34 16.34 0 009.204 6.39a.996.996 0 00-.597-.363zm5.302 1.076a.352.352 0 00-.251.107.366.366 0 00.002.512.352.352 0 00.251.106 4.441 4.441 0 013.142 1.39 4.286 4.286 0 011.066 3.105c0 .096.038.188.105.255a.352.352 0 00.251.106l.012.015a.35.35 0 00.252-.107.364.364 0 00.104-.257c.035-1.438-.404-2.646-1.269-3.613-.865-.967-2.074-1.51-3.615-1.62a.348.348 0 00-.05 0zm.58 1.956a.356.356 0 00-.258.1.368.368 0 00-.114.258.376.376 0 00.098.265.362.362 0 00.253.115c1.174.06 1.743.665 1.814 1.91a.366.366 0 00.108.248.352.352 0 00.248.102h.011a.35.35 0 00.253-.119.363.363 0 00.091-.268c-.083-1.619-.948-2.526-2.489-2.61h-.014z" fill="#FDFF8E"/></svg>