<svg width="27" height="27" fill="none" xmlns="http://www.w3.org/2000/svg"><path d="M13.554 0C6.146 0 .11 6.008.11 13.379c0 2.362.624 4.657 1.79 6.682L0 27l7.123-1.863a13.503 13.503 0 006.431 1.633C20.962 26.77 27 20.764 27 13.392a13.26 13.26 0 00-3.935-9.463C20.528 1.39 17.15 0 13.555 0zm.014 2.255c2.985 0 5.78 1.16 7.896 3.266a11.076 11.076 0 013.27 7.871c0 6.129-5.02 11.11-11.18 11.11-2.008 0-3.975-.526-5.685-1.552l-.407-.23-4.233 1.108 1.126-4.104-.271-.433a11.013 11.013 0 01-1.71-5.912c.014-6.13 5.02-11.124 11.194-11.124zm-4.776 4.94c-.217 0-.583.082-.896.419-.298.338-1.18 1.161-1.18 2.795 0 1.646 1.208 3.226 1.357 3.455.19.23 2.388 3.605 5.766 5.036.8.365 1.425.567 1.913.716.8.256 1.533.215 2.117.134.651-.094 1.98-.81 2.266-1.593.285-.782.285-1.444.203-1.593-.095-.134-.312-.215-.651-.364-.34-.189-1.995-.999-2.293-1.107-.312-.108-.502-.162-.76.162-.217.337-.868 1.094-1.058 1.31-.204.229-.394.256-.72.094-.352-.175-1.437-.526-2.713-1.66-1.004-.892-1.669-1.985-1.872-2.322-.163-.325-.014-.527.15-.675.148-.149.365-.392.501-.595.176-.188.23-.337.34-.553.108-.23.054-.418-.028-.58-.081-.149-.76-1.823-1.045-2.484-.27-.649-.542-.567-.76-.581-.19 0-.406-.013-.637-.013z" fill="#FDFF8E"/></svg>